<svg xmlns="http://www.w3.org/2000/svg" width="1543.09" height="2176" viewBox="0 0 1543.09 2176">
  <defs>
    <style>
      .cls-1 {
        fill: #80ed99;
        stroke: #000;
        stroke-width: 1px;
        fill-rule: evenodd;
      }
    </style>
  </defs>
  <path id="Forma_1" data-name="Forma 1" class="cls-1" d="M1524,0h235V98H1623v97h136q-0.495,49.5-1,99H1526c-0.67-.333-1.33-0.667-2-1V0Zm281,0h235q-0.495,42.5-1,85H1904v16c27.32-.2,118.12-6.083,136,2q-0.495,97.489-1,195l-234-1V208h136V192H1805V0Zm515,0V85l-136,1q0.495,8,1,16h135V298H2147c-11.64,0-55.51,2.775-61-2q-0.495-43-1-86c0.33-.667.67-1.333,1-2h135V192H2118c-9.91,0-31.62,2.794-32-4q-0.495-93.99-1-188h235ZM1162,427l1542,1q-70.5,786.921-141,1574-313.47,86.985-627,174c-15.18,3.26-37.58-9.24-50-13l-130-36q-226.47-62.49-453-125Q1232.5,1214.575,1162,427Zm305,515,738,1q-9,98.49-18,197H1484v1q9,95.985,18,192h668q-11.505,125.49-23,251l-216,58q-106.995-28.995-214-58-7.005-76.995-14-154H1510q13.5,150.99,27,302,197.475,54.99,395,110,197.985-54.99,396-110,43.5-490.95,87-982H1449Q1458,845.991,1467,942Z" transform="translate(-1161.44)"/>
</svg>
