<svg xmlns="http://www.w3.org/2000/svg" width="711.312" height="1004.313" viewBox="0 0 355.656 502.157">
  <defs>
    <style>
      .cls-1 {
        fill: #80ed99;
        stroke: #000;
        stroke-width: 1px;
        fill-rule: evenodd;
      }
    </style>
  </defs>
  <path id="Forma_1" data-name="Forma 1" class="cls-1" d="M439,19V87H391V68h29V20A183.345,183.345,0,0,0,439,19Zm9,1h63V38H466v7h45V87H448V69h45V61c-11.567.62-30.262-.009-45,0V20ZM273,118H627c0.421,2.239,1.142,14.06,0,18h-1v10h-1v9h-1q0.5,1.5,1,3h-1q-0.5,5-1,10a1.62,1.62,0,0,1,1,2h-1v7h-1q0.5,2,1,4h-1v11h-1v8s-1.225-.122-1,2h1q-0.5,5.5-1,11h-1q0.5,1.5,1,3c-1.345,3.6.111,8.167-1,12h-1v7h-1c-0.109.674,1.63,2.646,1,5h-1v11h-1v12h-1v8h-1a1.608,1.608,0,0,0,1,2v1c-1.239,3.342.032,7.409-1,11h-1q-0.5,10-1,20h-1q0.5,2,1,4h-1v11h-1v12c-2.823,9.837-.766,22.689-4,34v12h-1v12h-1q-0.5,11-1,22h-1v9h-1v15h-1v8h-1v11h-1q0.5,2.5,1,5a109.835,109.835,0,0,0-2,18l-2,1c-2.678,2.476-4.262.7-8,2v1h-3v1h-3v1h-4v1h-4v1l-7,1v1h-3v1l-7,1v1l-7,1v1h-5v1h-2v1l-8,1c-13.259,4.753-28.836,8.265-42,13l-12,2v1h-3v1h-3v1l-8,1v1l-7,1v1h-3v1h-4v1l-11-2v-1h-4v-1h-3v-1l-7-1v-1l-11-2v-1l-7-1v-1h-4v-1h-3v-1h-4v-1h-3v-1l-7-1v-1l-11-2v-1l-7-1v-1l-12-2v-1h-3v-1h-3v-1h-3v-1h-5v-1l-14-3v-1h-3v-1l-8-1c-4.481-1.605-9.908-3.943-15-5-0.331-2.122-.993-1.977-1-2V467h-1a1.725,1.725,0,0,1,1-2q-0.5-4.5-1-9h-1V444h-1c-0.629-2.376.975-2.615,1-4h-1v-8h-1V421c-0.014-.049-1.183-0.34-1-3h1v-1h-1V406h-1q-0.5-10-1-20h-1l1-3h-1v-9h-1V362h-1l1-3h-1v-7h-1v-1h1v-1h-1V340h-1c-0.618-2.381.993-2.616,1-4h-1v-8h-1V317h-1a2.792,2.792,0,0,1,1-3v-1h-1v-8h-1l1-3h-1v-9h-1V281h-1V271h-1V259h-1V241h-1v-5h-1q0.5-2.5,1-5h-1q-0.5-9.5-1-19h-1V202h-1V189h-1V178h-1c-0.108-.718,1.638-2.619,1-5-0.672-2.5-2.21-6.508-2-10l1-2h-1v-6h-1q0.5-2.5,1-5h-1Q274,134,273,118ZM397,390l-68-18v40l3,1c2.621,2.3,5.338.748,9,2v1l11,2v1h3v1l8,1c9.986,3.58,22.066,6.46,32,10l8,1v1h3v1h4v1h4v1h4v1l18,4c2.124-5.837,1-16.458,1-24V193c-7.518-2.769-28.908-1.047-39-1-2.508,6.779-1.052,19.422-1,28,1.395,1.8.011,5.925,0,10v30h1q-0.5,3-1,6v34c1.426,5.764-.015,22.66,0,32v8h1a2.647,2.647,0,0,1-1,3v33q0.5,3.5,1,7h-1v7Zm67-198V344a68.756,68.756,0,0,0,18-3h6v-1h6v-1h7v-1h7c5.615-1.654,13.632-1.918,19-4v9c-3.284,3.851-.35,9.744-2,16-1.124,4.262-2.935,17.879-3,26l-58,16v40c5.335,0.016,8.26-1.715,12-3l10-2v-1l12-2v-1h3v-1l7-1v-1h4v-1l11-2v-1l7-1v-1h4v-1h3v-1h4v-1h4v-1l10-2v-1h1v-8h1v-9h1V385h1V375h1V364h1v-1h-1v-1h1v-9h1V342h1q-0.5-1-1-2h1q0.5-9,1-18h1V309c1.491-5.3,1.983-12.252,2-19l-64,9V231h69q1.5-19.5,3-39H464Z" transform="translate(-272.469 -18.438)"/>
</svg>
