<svg xmlns="http://www.w3.org/2000/svg" width="2604.125" height="1355.625" viewBox="0 0 10416.5 5422.5">
  <defs>
    <style>
      .cls-1 {
        fill: #80ed99;
        fill-rule: evenodd;
      }
    </style>
  </defs>
  <path id="Forma_1" data-name="Forma 1" class="cls-1" d="M5085,0l247,1,113,2,160,5,203,9,200,14,148,13c131.74,21.7,265.48,22.25,394,46,162.55,30.039,325.25,45.5,482,80l334,72c190.05,48.421,376.7,98.437,556,155,435.6,137.418,840.38,308.887,1200,524,168.31,100.68,325.08,211.55,476,329q72.99,63,146,126,24.495,24,49,48a518.754,518.754,0,0,1,75,75q22.995,23.505,46,47c30.49,37.78,63.98,72.42,94,111,46.4,59.58,95,118.99,136,184,32.6,51.63,61.8,105.45,93,159,39.8,68.33,67.2,146.97,97,224,25,64.65,38.1,133.21,55,206,11.9,51.57,14.9,108.24,24,165q1.5,34.995,3,70v92c-6,38.95-.7,75.48-7,112-12.7,73.59-19.3,144.77-39,211-73.8,248.34-171,426.79-304,613-192.77,269.79-458.76,480.8-731,672-103.73,72.85-215.09,134.44-327,200-71.4,41.83-146.4,82.73-224,117-71.02,31.37-141.62,69.5-214,101-192.81,83.9-394.09,163.12-603,229-136.3,42.98-275.71,80.4-416,122-166.68,49.43-342.56,79.62-518,118-145.37,31.8-295.92,46.56-446,75q-82.485,10.995-165,22-121.995,13.005-244,26l-233,21q-35.49,1.995-71,4-97.485,5.505-195,11l-154,6-118,3q-106.485,1.005-213,2-91.995-1.005-184-2-42.495-1.005-85-2-58.995-1.995-118-4l-184-9-65-3q-105.495-8.505-211-17-43.995-3.495-88-7-139.98-15.495-280-31-137.985-19.5-276-39c-212.11-42.11-422.02-69.84-623-121-216.25-55.05-426.11-110.57-630-175-474.12-149.83-905.84-353.32-1289-595-105.2-66.35-203.53-138.26-301-212-49.835-37.7-94.626-82.11-143-121-31.176-25.06-57.2-56.13-88-81a590.534,590.534,0,0,1-85-85q-26.5-27.495-53-55c-45.907-56.92-97.1-110.04-140-170-57.2-79.94-109.156-162.77-160-250-43.242-74.19-74.489-158-107-242-30.674-79.25-48.027-167.01-66-258-30.6-154.9-23.672-368.49,10-513,16.958-72.78,29.956-141.34,55-206,29.839-77.04,57.242-155.63,97-224,31.151-53.57,60.458-107.34,93-159,40.962-65.02,89.615-124.45,136-184,98.487-126.44,219.719-251.43,345-351,84.149-66.88,166.04-137.21,255-200,255.69-180.479,539.88-337.123,843-469,158.03-68.754,322.48-125.91,488-190,183.58-71.086,381.32-113.989,577-172l114-27c123.08-31.32,252.21-55.046,380-83q88.485-16,177-32c140.66-30.313,287.71-37.676,433-63l122-14,183-18,283-21L4932,3Zm98,1427Q5254,1053.035,5325,679c-0.33-.333-0.67-0.667-1-1l-676,1q-284.97,1443.855-570,2888h676v-2q160.485-801.915,321-1604h493c100.88-.01,202.96,2.16,247,59,24.79,31.99,34.44,95.43,24,153q-25.5,135.48-51,271-105.495,561.45-211,1123h663c11.67,0,40.89,4.14,48-2q40.5-237.48,81-475,66.495-389.46,133-779,13.995-81.99,28-164c17.22-82.9,31.51-196.57,9-286-21.53-85.55-59.79-146.35-107-205-29.6-36.78-72.16-66.44-113-92-88.54-55.42-191.38-88.56-311-115l-131-18c-72.09-12.21-161.43-4-240-4H5183ZM1464,4316h676q70.995-374.46,142-749h549c126.33,0.01,251.01,6.45,357-17,496.57-109.85,821.68-429.99,964-894,65.07-212.14,82.9-542.07,1-750-89.79-227.94-261.51-358.43-506-432-63.54-19.12-132.14-26.33-203-39-53.86-9.63-112.4-8-174-8H2701q-333.465.495-667,1Q1749.03,2871.855,1464,4316ZM6815,1427q-285.465,1444.35-571,2889h630c11.32,0,39.13,3.93,46-2q71.49-373.47,143-747h549c123.78,0.01,246.63,6.95,351-16,470.44-103.47,774.05-383.34,936-795,27.47-69.83,47.19-146.49,65-227q8.505-57,17-114,4.005-55.5,8-111v-48c6.47-41.35-1.84-123.72-9-162-22.97-122.89-52.53-223.81-108-312-104.05-165.43-271.99-264.14-487-319-62.86-16.04-129.93-20.3-199-32-55.16-9.35-122.05-4-183-4H6815ZM2604,1961h324c248.14-.02,430.93,8.49,527,162,66.43,106.14,37.91,310.91,1,434-66.53,221.89-152.05,345.01-360,426-49.91,19.44-106.77,28.44-164,40-75,15.16-172.13,10-261,10H2425Q2514.49,2497.05,2604,1961ZM7206,3033Q7295,2497.05,7384,1961h322c74.11-.01,156.84-7.72,225,4,135.12,23.24,241.48,57.71,302,154,68.08,108.32,41.74,299.56,6,428-61.34,220.41-154.38,354.92-357,434-53.56,20.91-114.11,30.53-176,43-73.01,14.71-168.2,9-254,9H7206Z"/>
</svg>
